# xmcd
#
# Track frame offsets:
# 183
# 13463
# 26878
# 41073
# 56633
# 69728
# 82003
# 94300
# 105918
# 118983
# 135663
# 149878
# 162250
# 175378
#
# Disc length: 2524 seconds
#
#
# Revision: 0
# Processed by: cddbd v1.5.1PL0 Copyright (c) Steve Scherf et al.
# Submitted via: FreeRIP 2.80 
#
DISCID=d809da0e
DTITLE=Tiny Grimes - Tiny Grimes And His Rocking Highlanders
DYEAR=1990
DGENRE=Blues
TTITLE0=Call Of The Wild
TTITLE1=St. Louis Blues
TTITLE2=Tiny's Jump
TTITLE3=Blues
TTITLE4=Marie
TTITLE5=1626 Boogie
TTITLE6=Bananas
TTITLE7=Bananas
TTITLE8=Frankie and Jonny Boogie
TTITLE9=Call Of The Wild
TTITLE10=Am I Blue
TTITLE11=Hawaiian Boogie
TTITLE12=Pert Skirt
TTITLE13=Ho Ho Ho
EXTD=Collectables Records Corp. COL-5317
EXTT0=
EXTT1=
EXTT2=
EXTT3=
EXTT4=
EXTT5=
EXTT6=
EXTT7=
EXTT8=
EXTT9=
EXTT10=
EXTT11=
EXTT12=
EXTT13=
PLAYORDER=
